<?xml version="1.0" encoding="UTF-8" ?>
<!DOCTYPE svg PUBLIC "-//W3C//DTD SVG 1.1//EN" "http://www.w3.org/Graphics/SVG/1.1/DTD/svg11.dtd">
<svg width="1806pt" height="631pt" viewBox="0 0 1806 631" version="1.1" xmlns="http://www.w3.org/2000/svg">
<g id="#000000fe">
<path fill="#000000" opacity="1.00" d=" M 1758.05 7.28 C 1759.69 7.82 1758.34 10.22 1756.95 9.72 C 1755.27 9.18 1756.61 6.78 1758.05 7.28 Z" />
<path fill="#000000" opacity="1.00" d=" M 1726.10 31.13 C 1735.98 24.29 1744.95 16.06 1755.40 10.05 C 1740.81 23.39 1724.56 34.78 1709.30 47.32 C 1621.21 116.57 1530.17 182.35 1434.06 240.07 C 1390.30 266.65 1345.04 290.70 1298.91 312.89 C 1247.33 336.83 1194.16 357.83 1138.98 371.89 C 1068.65 389.76 994.32 397.21 922.58 383.45 C 881.74 375.59 842.06 361.85 804.99 343.02 C 763.37 323.18 725.16 297.19 686.08 272.93 C 655.33 253.97 624.14 234.94 589.72 223.37 C 568.55 215.75 546.26 211.91 524.04 208.87 C 469.34 201.74 413.78 204.46 359.31 212.30 C 246.65 229.42 137.48 265.36 33.73 311.99 C 65.63 289.52 99.23 269.54 132.96 249.96 C 196.77 213.50 262.44 180.07 330.70 152.71 C 395.05 127.09 461.61 105.75 530.46 96.53 C 565.92 91.31 602.38 91.58 637.43 99.50 C 663.83 104.86 688.98 115.02 713.01 127.02 C 750.08 146.60 783.83 171.65 817.37 196.63 C 857.06 225.84 897.90 254.65 943.87 273.17 C 971.65 284.85 1001.08 292.44 1030.98 296.10 C 1110.81 306.03 1191.42 292.39 1268.00 269.97 C 1361.25 242.29 1449.84 200.87 1534.68 153.66 C 1600.70 116.41 1664.44 75.19 1726.10 31.13 Z" />
<path fill="#000000" opacity="1.00" d=" M 1758.17 227.17 C 1762.15 226.24 1757.23 231.16 1758.17 227.17 Z" />
<path fill="#000000" opacity="1.00" d=" M 1753.97 231.11 C 1755.07 230.36 1756.21 229.68 1757.38 229.00 C 1751.46 234.96 1744.60 239.86 1738.03 245.04 C 1645.72 319.06 1550.24 389.40 1449.40 451.42 C 1375.59 496.51 1298.88 537.53 1217.64 567.62 C 1149.98 592.98 1078.51 610.06 1006.00 611.07 C 939.70 612.54 873.65 596.57 813.96 568.09 C 774.88 550.02 738.61 526.66 702.30 503.69 C 670.44 483.91 638.72 463.31 603.83 449.17 C 569.23 434.80 531.69 429.34 494.55 426.61 C 445.77 423.09 396.78 427.00 348.54 434.47 C 251.69 450.48 157.38 479.91 67.03 518.04 C 56.16 522.47 45.69 527.84 34.71 531.99 C 78.54 501.33 125.06 474.76 171.78 448.79 C 227.06 418.68 284.00 391.54 342.61 368.56 C 399.67 346.68 458.30 327.95 518.87 318.82 C 558.46 312.52 599.42 311.17 638.67 320.33 C 671.60 327.46 702.90 341.02 731.78 358.21 C 773.08 382.17 809.84 412.86 849.06 439.92 C 880.69 462.37 914.29 482.53 950.61 496.45 C 1016.45 522.34 1089.31 524.41 1158.69 514.72 C 1246.97 502.03 1331.93 472.47 1412.98 435.93 C 1533.98 380.92 1647.34 310.18 1753.97 231.11 Z" />
<path fill="#000000" opacity="1.00" d=" M 85.28 631.00 C 96.66 628.40 108.42 629.01 120.00 628.89 C 140.62 629.18 161.38 627.78 181.85 631.00 L 85.28 631.00 Z" />
</g>
</svg>
