<?xml version="1.0" encoding="UTF-8" ?>
<!DOCTYPE svg PUBLIC "-//W3C//DTD SVG 1.1//EN" "http://www.w3.org/Graphics/SVG/1.1/DTD/svg11.dtd">
<svg width="1509pt" height="1020pt" viewBox="0 0 1509 1020" version="1.1" xmlns="http://www.w3.org/2000/svg">
<g id="#000000ff">
<path fill="#000000" opacity="1.00" d=" M 1332.67 98.77 C 1381.67 68.89 1428.98 36.29 1475.01 2.02 C 1415.12 50.99 1353.56 97.99 1289.74 141.74 C 1227.79 184.05 1163.64 223.44 1096.04 256.10 C 1049.09 278.70 1000.38 298.05 949.79 310.79 C 905.20 321.99 858.95 327.80 812.97 324.58 C 776.26 322.10 740.02 313.58 705.89 299.88 C 670.56 285.86 637.68 266.53 605.63 246.29 C 573.77 226.39 542.43 205.07 507.57 190.65 C 487.04 182.02 465.11 177.30 443.11 174.26 C 406.99 169.38 370.32 169.81 334.10 173.31 C 288.74 177.74 243.95 186.97 200.03 199.00 C 141.81 215.07 84.92 235.91 30.01 261.03 C 61.53 239.68 94.11 219.92 127.26 201.21 C 190.40 165.79 255.94 134.24 324.41 110.52 C 363.93 96.95 404.49 86.02 445.94 80.33 C 477.19 76.04 509.30 76.62 540.05 84.00 C 572.66 91.63 602.96 106.89 630.84 125.17 C 665.70 147.93 697.72 174.75 732.83 197.15 C 760.51 214.94 790.34 229.77 822.13 238.58 C 864.89 250.61 910.03 251.56 953.97 246.93 C 1011.69 240.68 1067.94 224.69 1122.12 204.20 C 1195.60 176.19 1265.59 139.67 1332.67 98.77 Z" />
<path fill="#000000" opacity="1.00" d=" M 1454.67 200.79 C 1461.47 195.97 1467.96 190.70 1474.88 186.07 C 1413.40 236.04 1350.44 284.28 1284.91 328.85 C 1225.54 369.17 1164.13 406.73 1099.58 438.21 C 1056.87 458.96 1012.72 477.04 966.99 490.01 C 908.74 506.57 847.15 514.44 786.89 505.61 C 750.93 500.48 715.98 489.31 683.17 473.84 C 645.98 456.50 611.66 433.83 577.00 412.05 C 546.95 393.34 515.99 374.88 481.54 365.60 C 438.36 354.39 393.24 352.73 348.92 355.87 C 291.79 360.07 235.50 372.20 180.63 388.35 C 129.14 403.66 78.67 422.48 29.89 444.97 C 56.50 426.83 83.98 409.99 111.84 393.83 C 172.27 358.99 234.94 327.74 300.24 303.06 C 348.61 284.94 398.58 270.25 449.92 263.64 C 488.12 258.77 527.60 261.82 563.97 274.87 C 596.80 286.38 626.46 305.12 654.59 325.28 C 688.11 349.30 720.44 375.29 756.70 395.21 C 787.43 412.30 821.03 424.48 855.87 429.64 C 915.34 438.35 976.00 430.66 1033.92 416.12 C 1111.68 396.25 1185.71 363.90 1256.41 326.28 C 1325.44 289.36 1391.44 246.91 1454.67 200.79 Z" />
<path fill="#000000" opacity="1.00" d=" M 39.87 543.91 C 51.10 531.09 68.18 524.60 85.01 524.31 C 107.35 524.19 129.70 524.26 152.05 524.27 C 154.23 524.03 156.17 525.84 156.16 528.02 C 156.87 530.91 154.47 532.96 153.27 535.28 C 146.16 548.03 138.78 560.63 131.73 573.42 C 117.80 574.13 103.95 571.68 90.02 572.56 C 82.11 572.98 73.61 574.04 67.26 579.24 C 61.11 584.26 57.46 591.62 55.25 599.11 C 51.78 610.61 51.07 622.72 51.04 634.67 C 86.02 634.68 121.01 634.63 155.99 634.69 C 158.41 634.44 160.58 636.55 160.35 638.99 C 160.41 652.00 160.37 665.02 160.37 678.03 C 160.71 680.54 158.72 683.05 156.10 682.80 C 121.08 682.88 86.06 682.81 51.05 682.83 C 51.03 760.56 51.06 838.29 51.03 916.01 C 51.33 918.40 49.62 920.99 47.04 920.86 C 37.34 920.97 27.63 920.93 17.93 920.88 C 15.36 921.04 14.77 917.94 14.88 915.98 C 14.87 832.64 14.88 749.30 14.87 665.96 C 14.99 641.91 13.95 617.64 18.33 593.86 C 21.59 575.94 27.49 557.70 39.87 543.91 Z" />
<path fill="#000000" opacity="1.00" d=" M 1242.07 590.70 C 1271.26 587.47 1300.66 588.15 1329.97 588.08 C 1353.61 588.02 1377.31 588.61 1400.77 591.69 C 1417.62 594.00 1434.78 597.60 1449.51 606.49 C 1463.42 614.53 1474.47 627.13 1481.18 641.67 C 1489.73 660.16 1492.02 680.84 1492.09 701.00 C 1492.14 721.97 1488.06 743.66 1476.36 761.39 C 1468.50 773.53 1456.71 782.52 1444.06 789.20 C 1429.08 796.59 1412.50 800.02 1396.01 801.96 C 1378.77 804.00 1361.39 804.34 1344.06 804.25 C 1333.05 804.15 1322.03 804.66 1311.08 803.49 C 1288.05 802.45 1264.89 801.98 1241.92 804.34 C 1230.90 805.58 1219.78 807.35 1209.45 811.54 C 1204.41 812.75 1200.46 816.33 1196.66 819.65 C 1190.37 825.48 1185.47 832.93 1183.20 841.25 C 1179.74 853.17 1180.98 865.71 1180.75 877.96 C 1282.18 877.95 1383.60 877.96 1485.02 877.95 C 1487.54 877.58 1490.66 879.06 1490.45 882.01 C 1490.53 893.66 1490.55 905.32 1490.44 916.97 C 1490.62 919.89 1487.49 921.28 1485.01 920.93 C 1370.66 920.89 1256.31 920.96 1141.97 920.89 C 1139.72 921.16 1138.26 918.92 1138.38 916.91 C 1138.26 904.28 1138.37 891.65 1138.33 879.02 C 1138.44 865.67 1137.74 852.21 1140.05 838.98 C 1142.68 822.43 1149.39 806.22 1160.88 793.84 C 1171.05 782.69 1184.48 774.82 1198.90 770.55 C 1231.86 760.41 1266.77 760.49 1300.92 760.86 C 1322.92 761.80 1344.98 762.33 1366.99 761.24 C 1386.30 759.99 1406.14 757.51 1423.58 748.54 C 1432.60 744.03 1440.35 736.76 1444.73 727.61 C 1449.99 716.91 1450.73 704.65 1449.92 692.94 C 1449.02 679.66 1445.70 666.12 1437.81 655.19 C 1431.54 646.50 1422.20 640.13 1411.88 637.30 C 1404.03 635.11 1395.93 634.01 1387.85 633.16 C 1361.98 630.55 1335.94 631.11 1309.98 631.04 C 1284.58 631.03 1259.03 630.89 1233.87 634.85 C 1223.27 636.69 1212.28 639.02 1203.43 645.49 C 1191.91 653.76 1186.33 668.19 1186.00 682.03 C 1186.39 684.88 1183.93 687.32 1181.10 687.01 C 1169.03 687.06 1156.96 687.08 1144.90 687.00 C 1142.69 687.22 1140.87 685.19 1141.01 683.05 C 1140.72 664.90 1144.56 646.10 1155.02 630.97 C 1164.20 617.50 1178.15 607.91 1193.19 602.02 C 1208.67 595.39 1225.43 592.57 1242.07 590.70 Z" />
<path fill="#000000" opacity="1.00" d=" M 537.30 637.36 C 566.53 637.20 595.76 637.33 624.99 637.29 C 643.33 637.40 662.06 636.25 679.90 641.42 C 689.53 644.16 698.97 648.67 705.94 656.01 C 714.49 666.13 719.07 678.96 721.71 691.79 C 724.16 704.04 725.05 716.58 724.92 729.06 C 725.09 731.35 723.36 733.84 720.87 733.57 C 711.28 733.58 701.70 733.62 692.12 733.56 C 689.71 733.70 688.22 731.23 688.34 729.07 C 688.20 717.92 687.75 706.59 684.39 695.88 C 683.21 692.35 681.82 688.49 678.45 686.49 C 670.42 681.19 660.42 680.48 651.07 680.24 C 614.72 680.17 578.36 680.23 542.00 680.20 C 533.66 680.13 524.62 680.50 517.55 685.48 C 512.11 689.25 509.86 695.90 508.58 702.10 C 506.94 710.59 506.59 719.30 506.89 727.92 C 507.07 732.20 508.22 737.31 512.50 739.30 C 518.87 742.06 526.04 741.03 532.79 741.83 C 537.01 741.61 540.68 744.23 544.92 743.99 C 564.27 744.60 583.63 744.98 602.97 745.97 C 622.66 746.75 642.86 745.21 661.98 750.94 C 674.43 755.03 686.36 761.16 696.40 769.66 C 707.37 779.01 714.57 792.11 718.43 805.87 C 723.14 822.43 724.40 839.83 723.72 856.98 C 722.87 874.02 717.60 891.92 704.61 903.70 C 690.76 916.43 671.28 920.42 653.01 920.87 C 621.35 920.98 589.70 920.88 558.04 920.92 C 542.20 920.79 526.03 921.89 510.59 917.54 C 501.90 915.24 493.40 911.31 486.98 904.88 C 481.15 899.22 477.91 891.52 475.45 883.92 C 470.24 866.81 469.27 848.76 469.04 830.98 C 469.08 829.09 468.85 826.87 470.38 825.48 C 471.66 824.35 473.47 824.65 475.04 824.57 C 484.34 824.67 493.65 824.44 502.95 824.67 C 505.19 824.61 506.87 826.73 506.73 828.88 C 506.96 840.44 506.98 852.27 510.48 863.41 C 512.25 868.12 514.84 873.21 519.70 875.33 C 526.09 878.00 533.19 878.26 540.03 878.48 C 575.02 878.52 610.02 878.48 645.01 878.50 C 655.44 878.62 666.77 878.00 675.55 871.69 C 683.00 866.33 685.29 856.75 686.44 848.16 C 687.64 836.87 688.67 824.06 681.27 814.52 C 674.18 805.69 663.58 800.46 653.03 796.93 C 636.86 791.77 619.87 789.88 602.98 789.22 C 578.28 787.83 553.52 789.30 528.83 787.71 C 516.84 787.17 504.75 785.20 493.73 780.28 C 487.84 777.57 482.92 772.95 479.67 767.37 C 475.84 761.00 474.21 753.64 472.73 746.44 C 470.13 732.81 469.30 718.88 469.69 705.03 C 470.31 687.37 476.19 669.50 488.28 656.35 C 492.45 651.23 498.49 648.23 504.26 645.30 C 514.56 640.37 525.91 637.79 537.30 637.36 Z" />
<path fill="#000000" opacity="1.00" d=" M 832.03 639.62 C 844.44 636.37 857.35 637.48 870.03 637.29 C 892.68 637.30 915.33 637.28 937.99 637.30 C 969.15 636.99 1000.39 654.34 1014.88 682.23 C 1021.22 694.20 1024.85 707.49 1026.46 720.91 C 1027.82 731.89 1027.31 742.97 1027.42 754.00 C 1027.35 762.00 1027.54 770.01 1027.33 778.01 C 1027.40 780.35 1025.34 782.46 1022.96 782.23 C 949.10 782.29 875.24 782.22 801.38 782.26 C 801.72 800.01 800.16 817.97 803.72 835.50 C 806.07 847.22 810.79 859.07 819.91 867.17 C 828.33 874.78 839.90 877.91 851.06 877.95 C 882.02 877.96 912.99 877.95 943.96 877.96 C 953.88 878.20 964.31 877.16 972.97 871.90 C 980.66 867.40 985.65 859.42 988.07 851.00 C 993.19 833.78 991.45 815.62 991.81 797.91 C 1001.45 796.26 1011.28 796.08 1021.03 796.47 C 1023.70 796.65 1027.26 797.89 1027.34 801.09 C 1027.50 812.72 1027.39 824.37 1027.39 836.00 C 1027.21 854.43 1023.61 873.58 1012.81 888.90 C 1004.30 900.67 993.06 910.95 979.29 916.09 C 970.33 919.55 960.67 920.97 951.09 920.92 C 918.40 920.91 885.71 920.92 853.02 920.92 C 833.63 920.95 813.43 917.11 797.46 905.56 C 783.57 895.69 774.30 880.49 769.31 864.41 C 764.18 848.12 762.62 830.93 762.59 813.92 C 762.58 792.95 762.59 771.97 762.58 751.00 C 762.07 721.60 768.64 690.79 787.44 667.47 C 799.19 654.17 814.64 643.76 832.03 639.62 M 837.91 681.33 C 829.13 683.37 821.52 688.97 816.00 695.99 C 806.31 708.02 801.81 723.57 801.43 738.85 C 864.19 738.69 926.96 738.88 989.73 738.76 C 988.94 727.18 986.48 715.48 980.69 705.32 C 975.12 695.54 966.63 687.07 955.98 683.05 C 950.59 680.97 944.78 680.16 939.02 680.21 C 910.67 680.21 882.31 680.21 853.96 680.21 C 848.59 680.22 843.15 679.97 837.91 681.33 Z" />
<path fill="#000000" opacity="1.00" d=" M 224.81 643.77 C 236.37 639.57 248.72 637.71 260.99 637.79 C 291.98 637.81 322.97 637.76 353.96 637.81 C 372.42 638.05 391.48 642.36 406.45 653.62 C 415.98 660.58 423.40 670.24 427.88 681.15 C 434.81 697.80 436.70 716.09 436.60 733.98 C 435.77 740.00 436.79 746.02 436.67 752.06 C 436.66 766.36 436.67 780.66 436.67 794.96 C 436.89 811.99 435.53 828.99 434.10 845.95 C 432.33 863.18 430.76 881.03 422.78 896.71 C 418.20 905.89 410.01 913.27 400.16 916.34 C 382.66 921.92 364.07 920.79 345.96 920.92 C 308.97 920.92 271.97 920.92 234.98 920.91 C 219.46 920.90 203.02 917.34 191.16 906.74 C 179.76 896.71 174.21 881.73 172.12 867.03 C 170.26 854.78 170.92 842.36 170.79 830.02 C 170.69 813.93 170.91 797.60 175.11 781.96 C 177.49 772.95 182.05 764.33 189.12 758.12 C 198.26 750.10 210.19 746.16 221.95 743.95 C 245.73 739.57 270.00 740.46 294.06 740.37 C 327.79 740.37 361.53 740.37 395.26 740.37 C 394.53 729.18 393.81 717.78 389.86 707.18 C 387.70 701.54 384.95 695.74 379.90 692.13 C 372.20 684.81 361.49 681.25 350.97 681.30 C 321.29 681.31 291.61 681.25 261.93 681.33 C 250.44 681.67 238.05 684.20 229.59 692.57 C 222.08 699.95 219.50 710.86 219.52 721.08 C 219.68 723.42 218.84 726.74 215.94 726.73 C 205.61 726.87 195.28 726.77 184.96 726.78 C 182.66 727.03 180.42 725.31 180.33 722.95 C 179.72 708.64 180.90 693.92 186.50 680.58 C 193.43 663.71 207.68 650.02 224.81 643.77 M 225.40 790.48 C 220.83 792.96 215.78 795.32 213.02 799.98 C 207.41 808.89 207.98 819.87 208.00 829.99 C 208.21 838.52 207.23 847.26 209.57 855.59 C 211.25 861.94 215.06 867.79 220.55 871.47 C 227.97 876.50 237.19 877.88 245.98 877.96 C 282.33 877.95 318.69 877.96 355.05 877.95 C 365.28 877.91 376.17 875.06 383.35 867.35 C 391.00 859.23 393.56 847.73 394.10 836.91 C 394.66 820.40 396.02 803.89 395.65 787.38 C 345.11 787.68 294.56 787.39 244.02 787.52 C 237.74 787.71 231.30 788.12 225.40 790.48 Z" />
<path fill="#000000" opacity="1.00" d=" M 7.59 964.54 C 15.84 955.10 30.60 953.23 41.66 958.40 C 47.88 961.26 51.88 967.30 53.67 973.74 C 49.59 974.72 45.51 975.67 41.44 976.69 C 40.31 973.70 38.95 970.59 36.18 968.76 C 29.02 963.60 17.52 966.98 14.66 975.46 C 12.06 983.37 12.17 992.31 14.89 1000.18 C 17.92 1008.63 29.98 1011.71 36.59 1005.57 C 39.64 1003.14 40.28 999.06 42.03 995.90 C 46.04 996.81 49.90 998.30 53.85 999.44 C 52.34 1004.22 50.33 1009.03 46.71 1012.63 C 42.28 1017.31 35.78 1018.96 29.64 1020.00 L 26.49 1020.00 C 19.85 1018.84 13.02 1016.65 8.32 1011.56 C 2.99 1006.30 0.62 998.81 0.00 991.50 L 0.00 984.53 C 0.62 977.36 2.63 969.97 7.59 964.54 Z" />
<path fill="#000000" opacity="1.00" d=" M 71.49 962.58 C 78.22 956.18 88.21 954.87 97.08 956.00 C 105.24 956.96 112.94 961.67 117.15 968.79 C 121.72 976.46 122.35 985.82 121.27 994.51 C 120.25 1002.37 116.27 1010.01 109.63 1014.54 C 105.41 1017.64 100.19 1018.68 95.22 1020.00 L 88.66 1020.00 C 82.31 1018.61 75.66 1016.85 70.91 1012.12 C 63.21 1005.08 61.14 993.95 61.97 983.96 C 62.34 975.97 65.47 967.98 71.49 962.58 M 88.44 966.64 C 81.71 967.62 76.56 973.47 75.43 980.02 C 74.10 987.65 74.14 996.46 79.07 1002.88 C 84.54 1010.05 96.17 1010.91 102.75 1004.84 C 107.48 1000.66 108.79 994.01 108.85 987.98 C 108.90 982.09 108.03 975.58 103.79 971.14 C 99.96 966.97 93.86 965.70 88.44 966.64 Z" />
<path fill="#000000" opacity="1.00" d=" M 812.69 956.76 C 822.73 954.34 834.43 955.50 842.39 962.60 C 848.83 968.14 851.77 976.73 852.08 985.03 C 852.65 994.68 850.45 1005.26 843.09 1012.06 C 838.39 1016.79 831.79 1018.60 825.48 1020.00 L 818.98 1020.00 C 814.42 1018.82 809.67 1017.93 805.63 1015.39 C 799.58 1011.77 795.26 1005.60 793.55 998.80 C 791.83 992.04 791.85 984.87 793.20 978.05 C 795.15 968.15 802.69 959.13 812.69 956.76 M 816.28 967.30 C 810.29 969.26 806.44 975.15 805.62 981.21 C 804.58 988.62 804.78 997.12 809.74 1003.18 C 815.40 1010.25 827.18 1010.82 833.57 1004.46 C 838.00 1000.25 839.20 993.82 839.26 987.97 C 839.32 982.00 838.41 975.41 834.04 970.97 C 829.55 966.29 822.25 965.34 816.28 967.30 Z" />
<path fill="#000000" opacity="1.00" d=" M 1294.33 959.22 C 1302.01 954.73 1311.70 954.84 1320.07 957.15 C 1327.66 959.28 1332.73 966.77 1332.85 974.53 C 1328.69 974.68 1324.53 974.83 1320.38 974.97 C 1319.56 971.60 1318.04 967.81 1314.37 966.78 C 1309.82 965.50 1304.41 965.56 1300.45 968.39 C 1297.51 970.45 1298.43 975.19 1301.59 976.53 C 1309.98 980.69 1320.15 980.44 1327.93 986.05 C 1336.66 992.41 1336.67 1006.73 1328.84 1013.83 C 1324.71 1017.80 1318.85 1018.75 1313.50 1020.00 L 1306.55 1020.00 C 1301.43 1018.78 1295.91 1017.79 1291.86 1014.17 C 1287.22 1010.28 1285.15 1004.29 1284.34 998.47 C 1288.39 998.03 1292.45 997.61 1296.52 997.28 C 1297.40 1001.38 1299.21 1005.83 1303.29 1007.68 C 1307.69 1009.60 1313.02 1009.54 1317.39 1007.56 C 1321.14 1005.83 1323.61 1000.69 1320.94 997.07 C 1318.11 993.96 1313.62 993.52 1309.80 992.38 C 1302.58 990.49 1294.21 988.87 1289.65 982.33 C 1284.30 975.12 1286.59 963.77 1294.33 959.22 Z" />
<path fill="#000000" opacity="1.00" d=" M 131.25 956.74 C 137.49 956.75 143.73 956.74 149.96 956.75 C 153.64 970.53 157.16 984.37 160.90 998.14 C 165.05 984.52 168.16 970.52 171.91 956.76 C 178.19 956.77 184.49 956.66 190.77 956.82 C 190.65 977.36 190.72 997.90 190.73 1018.43 C 186.86 1018.47 182.99 1018.46 179.12 1018.44 C 179.05 1002.55 179.18 986.67 178.99 970.79 C 174.81 986.62 171.00 1002.56 166.96 1018.44 C 162.95 1018.46 158.93 1018.47 154.91 1018.44 C 150.91 1002.67 147.15 986.84 143.02 971.11 C 142.60 986.88 142.95 1002.68 142.84 1018.46 C 138.98 1018.45 135.11 1018.45 131.24 1018.47 C 131.26 997.89 131.24 977.31 131.25 956.74 Z" />
<path fill="#000000" opacity="1.00" d=" M 203.12 956.76 C 213.79 956.88 224.49 956.37 235.14 957.20 C 241.72 957.63 247.56 962.58 249.43 968.84 C 250.67 973.09 250.70 977.69 249.63 981.99 C 247.97 988.35 242.37 993.39 235.89 994.47 C 229.20 995.51 222.40 995.13 215.66 995.21 C 215.67 1002.96 215.67 1010.71 215.66 1018.46 C 211.48 1018.45 207.30 1018.47 203.12 1018.44 C 203.14 997.88 203.12 977.32 203.12 956.76 M 215.65 967.23 C 215.64 973.03 215.76 978.82 215.58 984.62 C 221.24 984.69 227.14 985.32 232.62 983.62 C 239.04 981.17 239.13 970.80 232.71 968.30 C 227.23 966.55 221.32 967.43 215.65 967.23 Z" />
<path fill="#000000" opacity="1.00" d=" M 260.90 957.30 C 265.09 957.28 269.28 957.27 273.48 957.31 C 273.43 974.20 273.48 991.10 273.45 1007.99 C 283.76 1008.01 294.06 1007.99 304.37 1008.00 C 304.38 1011.48 304.38 1014.97 304.37 1018.46 C 289.89 1018.45 275.40 1018.47 260.92 1018.45 C 260.90 998.06 260.94 977.68 260.90 957.30 Z" />
<path fill="#000000" opacity="1.00" d=" M 313.21 956.73 C 328.43 956.77 343.65 956.73 358.88 956.75 C 358.87 960.23 358.87 963.71 358.88 967.20 C 347.83 967.22 336.78 967.20 325.73 967.21 C 325.69 971.76 325.71 976.32 325.72 980.88 C 336.00 980.92 346.30 980.76 356.58 980.96 C 356.51 984.42 356.57 987.89 356.51 991.36 C 346.22 991.36 335.93 991.24 325.65 991.41 C 325.77 996.94 325.68 1002.47 325.71 1008.00 C 337.17 1008.00 348.62 1007.99 360.08 1008.00 C 360.08 1011.48 360.08 1014.96 360.08 1018.45 C 344.46 1018.48 328.83 1018.44 313.20 1018.47 C 313.22 997.89 313.20 977.31 313.21 956.73 Z" />
<path fill="#000000" opacity="1.00" d=" M 370.47 1018.46 C 370.48 997.88 370.39 977.28 370.52 956.70 C 376.74 956.81 382.97 956.71 389.20 956.76 C 392.91 970.73 396.55 984.72 400.23 998.69 C 403.91 984.73 407.51 970.74 411.13 956.76 C 417.39 956.73 423.66 956.75 429.92 956.75 C 429.92 977.31 429.91 997.88 429.92 1018.44 C 426.06 1018.47 422.20 1018.45 418.34 1018.46 C 418.25 1002.64 418.49 986.82 418.21 971.00 C 413.96 986.75 410.25 1002.65 406.18 1018.46 C 402.17 1018.45 398.15 1018.47 394.14 1018.44 C 390.30 1002.43 385.92 986.55 382.40 970.46 C 381.69 986.43 382.27 1002.46 382.04 1018.45 C 378.18 1018.46 374.33 1018.45 370.47 1018.46 Z" />
<path fill="#000000" opacity="1.00" d=" M 442.38 1018.46 C 442.47 997.86 442.17 977.24 442.52 956.65 C 457.70 956.88 472.89 956.68 488.08 956.75 C 488.08 960.23 488.08 963.71 488.08 967.20 C 477.02 967.21 465.96 967.20 454.90 967.21 C 454.94 971.76 454.89 976.31 454.94 980.87 C 465.21 980.87 475.48 980.88 485.75 980.87 C 485.69 984.39 485.91 987.92 485.60 991.44 C 475.39 991.19 465.18 991.41 454.97 991.32 C 454.86 996.87 454.94 1002.43 454.92 1008.00 C 466.38 1008.00 477.83 1007.99 489.29 1008.00 C 489.29 1011.48 489.29 1014.96 489.30 1018.45 C 473.66 1018.47 458.02 1018.45 442.38 1018.46 Z" />
<path fill="#000000" opacity="1.00" d=" M 499.84 956.75 C 503.87 956.74 507.90 956.74 511.94 956.75 C 520.44 970.27 528.41 984.14 537.22 997.46 C 537.32 983.93 537.38 970.40 537.19 956.88 C 541.07 956.60 544.98 956.80 548.88 956.76 C 548.87 977.32 548.87 997.88 548.88 1018.44 C 544.67 1018.46 540.47 1018.50 536.26 1018.41 C 528.05 1004.91 519.74 991.48 511.41 978.07 C 511.43 991.53 511.40 1004.99 511.42 1018.46 C 507.55 1018.45 503.69 1018.47 499.83 1018.44 C 499.84 997.88 499.82 977.31 499.84 956.75 Z" />
<path fill="#000000" opacity="1.00" d=" M 557.63 956.75 C 573.94 956.74 590.25 956.76 606.56 956.74 C 606.59 960.23 606.60 963.72 606.56 967.22 C 600.51 967.20 594.46 967.19 588.41 967.22 C 588.43 984.30 588.40 1001.37 588.42 1018.45 C 584.24 1018.46 580.05 1018.46 575.87 1018.45 C 575.87 1001.37 575.88 984.29 575.87 967.21 C 569.79 967.20 563.71 967.21 557.63 967.21 C 557.61 963.72 557.61 960.23 557.63 956.75 Z" />
<path fill="#000000" opacity="1.00" d=" M 625.91 956.75 C 630.31 956.75 634.71 956.73 639.11 956.76 C 647.37 977.32 655.64 997.88 663.82 1018.48 C 659.28 1018.39 654.74 1018.56 650.21 1018.37 C 648.57 1013.65 646.80 1008.98 644.90 1004.37 C 636.71 1004.47 628.53 1004.39 620.34 1004.41 C 618.61 1009.09 616.93 1013.79 615.19 1018.47 C 610.77 1018.45 606.35 1018.45 601.94 1018.46 C 609.94 997.89 617.89 977.31 625.91 956.75 M 632.34 971.20 C 629.76 978.84 626.85 986.38 624.12 993.97 C 629.72 993.93 635.33 993.97 640.94 993.95 C 638.07 986.36 635.31 978.74 632.34 971.20 Z" />
<path fill="#000000" opacity="1.00" d=" M 670.43 1018.47 C 670.43 997.88 670.36 977.30 670.46 956.72 C 674.53 956.79 678.61 956.66 682.68 956.83 C 690.98 970.60 699.46 984.27 707.90 997.96 C 707.95 984.22 707.89 970.49 707.92 956.75 C 711.77 956.74 715.62 956.74 719.48 956.75 C 719.52 977.32 719.51 997.89 719.48 1018.47 C 715.31 1018.45 711.14 1018.46 706.97 1018.46 C 698.63 1004.98 690.34 991.47 682.00 977.99 C 682.00 991.48 682.00 1004.96 682.00 1018.45 C 678.14 1018.46 674.28 1018.45 670.43 1018.47 Z" />
<path fill="#000000" opacity="1.00" d=" M 732.63 956.75 C 742.08 956.85 751.55 956.52 761.00 956.95 C 767.45 957.14 773.86 960.02 777.78 965.24 C 783.94 973.00 784.74 983.49 784.06 993.02 C 783.31 1001.73 779.45 1011.14 771.35 1015.39 C 765.45 1018.63 758.53 1018.53 752.00 1018.46 C 745.54 1018.45 739.08 1018.46 732.62 1018.45 C 732.63 997.88 732.61 977.32 732.63 956.75 M 745.17 967.21 C 745.16 980.80 745.17 994.40 745.17 1007.99 C 751.34 1007.70 757.78 1008.83 763.75 1006.81 C 769.96 1004.38 770.99 996.80 771.31 990.98 C 771.44 983.86 771.82 975.24 765.93 970.12 C 759.93 965.84 752.05 967.66 745.17 967.21 Z" />
<path fill="#000000" opacity="1.00" d=" M 881.35 956.74 C 897.67 956.77 914.00 956.73 930.33 956.76 C 930.33 960.23 930.33 963.71 930.33 967.20 C 924.26 967.21 918.19 967.20 912.13 967.21 C 912.12 984.28 912.12 1001.36 912.13 1018.44 C 907.95 1018.47 903.79 1018.45 899.62 1018.46 C 899.63 1001.38 899.62 984.30 899.63 967.22 C 893.53 967.19 887.44 967.20 881.35 967.22 C 881.31 963.72 881.32 960.23 881.35 956.74 Z" />
<path fill="#000000" opacity="1.00" d=" M 938.32 956.77 C 942.50 956.74 946.69 956.74 950.88 956.75 C 950.89 969.15 950.83 981.55 950.91 993.95 C 951.00 997.84 950.85 1002.30 953.75 1005.35 C 957.39 1009.25 963.46 1009.48 968.31 1008.18 C 972.23 1007.05 974.63 1003.08 974.60 999.13 C 975.19 985.01 974.72 970.87 974.88 956.75 C 979.05 956.74 983.23 956.74 987.42 956.75 C 987.36 969.50 987.53 982.26 987.32 995.02 C 987.11 1001.09 986.91 1007.83 982.70 1012.67 C 978.90 1017.27 972.84 1018.71 967.30 1020.00 L 959.55 1020.00 C 953.69 1018.92 947.36 1017.41 943.36 1012.61 C 939.04 1007.97 938.72 1001.32 938.45 995.34 C 938.19 982.49 938.41 969.62 938.32 956.77 Z" />
<path fill="#000000" opacity="1.00" d=" M 1024.47 1018.46 C 1024.46 997.89 1024.44 977.31 1024.48 956.74 C 1033.64 956.78 1042.81 956.70 1051.97 956.78 C 1056.04 956.93 1060.31 956.87 1064.11 958.56 C 1069.65 960.95 1073.59 966.86 1073.17 972.96 C 1073.03 978.37 1069.51 983.27 1064.73 985.62 C 1069.06 986.91 1073.07 989.81 1074.89 994.06 C 1079.16 1003.60 1072.77 1016.47 1062.13 1017.82 C 1049.62 1018.98 1037.02 1018.24 1024.47 1018.46 M 1037.01 967.04 C 1036.99 971.76 1037.00 976.48 1037.00 981.21 C 1042.68 981.12 1048.38 981.40 1054.06 981.00 C 1057.35 980.86 1060.70 978.48 1060.95 975.02 C 1061.54 971.65 1059.37 967.97 1055.87 967.46 C 1049.61 966.72 1043.29 967.17 1037.01 967.04 M 1036.99 991.51 C 1037.00 997.00 1036.99 1002.50 1037.00 1008.00 C 1042.35 1007.97 1047.70 1008.05 1053.06 1007.95 C 1055.72 1007.85 1058.69 1007.78 1060.81 1005.91 C 1065.27 1002.16 1063.64 993.57 1057.73 992.29 C 1050.90 990.98 1043.90 991.67 1036.99 991.51 Z" />
<path fill="#000000" opacity="1.00" d=" M 1086.25 956.73 C 1090.41 956.75 1094.58 956.75 1098.75 956.73 C 1098.69 977.33 1098.87 997.94 1098.66 1018.53 C 1094.51 1018.39 1090.38 1018.48 1086.25 1018.45 C 1086.25 997.87 1086.25 977.30 1086.25 956.73 Z" />
<path fill="#000000" opacity="1.00" d=" M 1110.60 956.75 C 1125.83 956.76 1141.06 956.74 1156.29 956.75 C 1156.29 960.23 1156.29 963.71 1156.29 967.20 C 1145.24 967.21 1134.18 967.20 1123.13 967.20 C 1123.11 971.76 1123.12 976.31 1123.13 980.87 C 1133.40 980.88 1143.68 980.87 1153.96 980.87 C 1153.95 984.35 1153.95 987.83 1153.97 991.32 C 1143.69 991.35 1133.41 991.33 1123.14 991.33 C 1123.11 996.88 1123.13 1002.43 1123.12 1007.99 C 1134.58 1008.01 1146.03 1008.00 1157.49 1008.00 C 1157.50 1011.48 1157.49 1014.96 1157.51 1018.46 C 1141.86 1018.46 1126.22 1018.46 1110.58 1018.46 C 1110.59 997.89 1110.57 977.31 1110.60 956.75 Z" />
<path fill="#000000" opacity="1.00" d=" M 1168.04 956.75 C 1172.07 956.74 1176.10 956.75 1180.14 956.74 C 1188.62 970.47 1197.03 984.25 1205.50 997.99 C 1205.50 984.24 1205.49 970.49 1205.51 956.75 C 1209.35 956.74 1213.21 956.74 1217.08 956.75 C 1217.09 977.32 1217.08 997.88 1217.08 1018.44 C 1212.97 1018.50 1208.86 1018.37 1204.76 1018.55 C 1196.19 1005.16 1188.04 991.50 1179.63 978.01 C 1179.62 991.50 1179.64 1004.98 1179.62 1018.47 C 1175.75 1018.45 1171.89 1018.46 1168.03 1018.45 C 1168.05 997.88 1168.04 977.32 1168.04 956.75 Z" />
<path fill="#000000" opacity="1.00" d=" M 1230.25 956.74 C 1245.47 956.77 1260.70 956.73 1275.92 956.75 C 1275.91 960.23 1275.91 963.71 1275.92 967.20 C 1264.86 967.21 1253.81 967.20 1242.76 967.21 C 1242.74 971.76 1242.73 976.32 1242.77 980.88 C 1253.05 980.93 1263.35 980.74 1273.63 980.98 C 1273.54 984.43 1273.60 987.89 1273.56 991.35 C 1263.26 991.41 1252.94 991.14 1242.65 991.48 C 1242.85 996.98 1242.70 1002.49 1242.75 1008.00 C 1254.20 1008.01 1265.66 1007.99 1277.13 1008.01 C 1277.12 1011.48 1277.12 1014.95 1277.13 1018.43 C 1261.48 1018.45 1245.83 1018.53 1230.19 1018.39 C 1230.33 997.84 1230.21 977.29 1230.25 956.74 Z" />
<path fill="#000000" opacity="1.00" d=" M 1340.75 956.76 C 1357.06 956.73 1373.37 956.77 1389.69 956.74 C 1389.72 960.23 1389.72 963.72 1389.69 967.22 C 1383.64 967.19 1377.60 967.21 1371.56 967.20 C 1371.51 984.29 1371.56 1001.37 1371.53 1018.46 C 1367.34 1018.45 1363.17 1018.46 1359.00 1018.45 C 1359.00 1001.36 1359.01 984.28 1358.99 967.20 C 1352.91 967.21 1346.83 967.21 1340.76 967.21 C 1340.73 963.72 1340.74 960.24 1340.75 956.76 Z" />
<path fill="#000000" opacity="1.00" d=" M 1385.06 1018.47 C 1393.02 997.89 1401.02 977.32 1409.01 956.76 C 1413.40 956.73 1417.81 956.74 1422.22 956.75 C 1430.46 977.32 1438.75 997.88 1446.92 1018.48 C 1442.40 1018.42 1437.89 1018.51 1433.38 1018.41 C 1431.72 1013.74 1429.83 1009.16 1428.20 1004.49 C 1419.95 1004.32 1411.69 1004.45 1403.43 1004.42 C 1401.71 1009.10 1400.03 1013.80 1398.29 1018.47 C 1393.87 1018.45 1389.46 1018.45 1385.06 1018.47 M 1407.24 993.95 C 1412.84 993.96 1418.44 993.95 1424.05 993.95 C 1421.28 986.54 1418.48 979.13 1415.71 971.72 C 1412.28 978.84 1410.16 986.58 1407.24 993.95 Z" />
<path fill="#000000" opacity="1.00" d=" M 1453.55 956.75 C 1466.18 957.12 1478.94 955.87 1491.50 957.67 C 1503.47 959.53 1507.75 975.79 1500.71 984.70 C 1497.70 988.69 1492.75 990.46 1488.01 991.28 C 1493.46 994.27 1497.20 999.35 1500.38 1004.56 C 1503.25 1009.19 1506.21 1013.76 1508.99 1018.46 C 1504.02 1018.45 1499.05 1018.47 1494.09 1018.44 C 1489.02 1011.03 1484.46 1003.24 1478.84 996.23 C 1475.82 992.30 1470.48 992.69 1466.08 992.70 C 1466.08 1001.28 1466.08 1009.87 1466.08 1018.45 C 1461.89 1018.46 1457.71 1018.45 1453.54 1018.46 C 1453.54 997.89 1453.53 977.32 1453.55 956.75 M 1466.09 967.20 C 1466.07 972.42 1466.07 977.65 1466.09 982.87 C 1471.42 982.85 1476.76 982.95 1482.09 982.69 C 1484.40 982.53 1486.98 982.41 1488.80 980.76 C 1493.06 977.03 1491.52 968.43 1485.50 967.57 C 1479.06 966.90 1472.55 967.33 1466.09 967.20 Z" />
</g>
</svg>
